<svg id="图层_4" data-name="图层 4" xmlns="http://www.w3.org/2000/svg" viewBox="0 0 358.71 151.39">
  <defs>
    <style>
      .cls-1 {
        fill: #171771;
      }
    </style>
  </defs>
  <path class="cls-1" d="M692.57,302.29a24.12,24.12,0,0,0-10.87-12,24.54,24.54,0,0,0-11.84-2.62,26.72,26.72,0,0,0-14.15,3.86c-9.2,5.7-11.49,15.41-12,17.57a32.26,32.26,0,0,0-.42,11.57,34,34,0,0,0,6,15c1.12,1.44,8,9.84,19.71,10.72,15.16,1.13,24.35-11.29,24.86-12h36.43a46.45,46.45,0,0,1-9.63,25.81c-12.13,15.46-30.08,17.23-33.25,17.49q.21,6.86.43,13.72l-18.86.42V377.3a101.48,101.48,0,0,1-14.12-2.59,137.68,137.68,0,0,1-13.29-4.28c-5.59-2-7.19-2.82-14.57-5.57-4-1.5-7.31-2.67-9.45-3.41V391h-18L600,356.3a112.16,112.16,0,0,0-42.41-.87l0-76.7s16.29,3.19,42.21,1.38V240.49h18v36.65q5-2.11,10.1-4.43,8-3.6,15.43-7.28a82.08,82.08,0,0,1,26.12-7.08V240.49h18v17.58a49.37,49.37,0,0,1,21.64,8.05c17.64,12,21.05,31.71,21.66,35.74Z" transform="translate(-557.55 -240.49)"/>
  <path class="cls-1" d="M774,354.57" transform="translate(-557.55 -240.49)"/>
  <path class="cls-1" d="M825,373.86" transform="translate(-557.55 -240.49)"/>
  <path class="cls-1" d="M800.14,315.57" transform="translate(-557.55 -240.49)"/>
  <g>
    <path class="cls-1" d="M737.7,301h7.2l-.36,4a42.34,42.34,0,0,1,6.45-2.88,37.89,37.89,0,0,1,7-1.8l-1.22,6a56.37,56.37,0,0,0-7.09,1.8,38.11,38.11,0,0,0-6.16,2.45l-5.18,24.62H730.5Z" transform="translate(-557.55 -240.49)"/>
    <path class="cls-1" d="M758.69,347.6a31.72,31.72,0,0,1-4.07-.51l1.37-6.26a18.74,18.74,0,0,0,3.53.68,33.49,33.49,0,0,0,3.89.26,23.15,23.15,0,0,0,10-1.88,8,8,0,0,0,4.71-5.83l.51-2.45a23.61,23.61,0,0,1-13.54,4.25,10.64,10.64,0,0,1-7.49-2.52,9.21,9.21,0,0,1-2.73-7.13,16.85,16.85,0,0,1,.43-3.67L759.8,301h7.85l-4.53,21.53a15.49,15.49,0,0,0-.36,2.88,4,4,0,0,0,1.47,3.46c1,.72,2.63,1.08,4.94,1.08a14.81,14.81,0,0,0,5.47-1,17.4,17.4,0,0,0,4.89-2.91l5.33-25h7.78l-6.77,31.83a17.32,17.32,0,0,1-7,10.83q-5.65,4.14-15.44,4.14C762.11,347.81,760.54,347.74,758.69,347.6Z" transform="translate(-557.55 -240.49)"/>
    <path class="cls-1" d="M801.42,301h6.77l-.29,3.39a21.31,21.31,0,0,1,5.76-3.1,20.51,20.51,0,0,1,6.63-1q5.9,0,9.17,3t3.28,9a30.25,30.25,0,0,1-.65,5.83q-1.94,9.14-6.73,13.46t-12.92,4.32q-6.2,0-9.94-2.88l-3.74,17.71h-7.85Zm18.4,26.1q3-2.83,4.35-9.1a25.78,25.78,0,0,0,.65-5.26c0-2.25-.61-3.9-1.83-4.93s-3.23-1.55-6-1.55a14.41,14.41,0,0,0-9.57,3.6l-3.6,17.06q2.81,3,7.92,3A11.28,11.28,0,0,0,819.82,327.11Z" transform="translate(-557.55 -240.49)"/>
    <path class="cls-1" d="M842.24,333.88a7.14,7.14,0,0,1-2.23-5.65,18.47,18.47,0,0,1,.36-3.24l3.82-17.86h-5l1.29-6.12h5l1.66-7.84,8.28-2.38L853.26,301h9.07l-1.8,6.12H852l-3.67,17.43a9.29,9.29,0,0,0-.29,2.23,2.58,2.58,0,0,0,1.12,2.45,8.23,8.23,0,0,0,3.85.65,13.88,13.88,0,0,0,4.25-.72l-1.15,5.54a20.75,20.75,0,0,1-7.13,1.15Q844.47,335.86,842.24,333.88Z" transform="translate(-557.55 -240.49)"/>
    <path class="cls-1" d="M870.54,307h-5.18l1.94-6h12.31l-7.2,34.13h-7.85ZM874,287.41h8.56l-1.36,6.48h-8.57Z" transform="translate(-557.55 -240.49)"/>
    <path class="cls-1" d="M887.06,332.55q-3.91-3.32-3.92-9.58a25.17,25.17,0,0,1,.58-4.89q1.86-8.86,7.56-13.32t14.83-4.47a27.31,27.31,0,0,1,5.76.51,17.59,17.59,0,0,1,4.39,1.58L915,308.21a17.57,17.57,0,0,0-8.64-1.87q-6.2,0-9.83,2.74t-4.93,9a22.44,22.44,0,0,0-.58,4.53q0,3.83,2.34,5.55t7.81,1.73a24.67,24.67,0,0,0,9.72-1.95l-1.29,6a32.76,32.76,0,0,1-11.52,1.94Q891,335.86,887.06,332.55Z" transform="translate(-557.55 -240.49)"/>
  </g>
</svg>
