<svg id="图层_1" data-name="图层 1" xmlns="http://www.w3.org/2000/svg" viewBox="0 0 173.16 151.39"><defs><style>.cls-1{fill:#82a9fd;}</style></defs><g id="图层_2" data-name="图层 2"><g id="图层_4" data-name="图层 4"><path class="cls-1" d="M135,61.8a24.06,24.06,0,0,0-10.87-11.95,24.43,24.43,0,0,0-11.84-2.62,26.62,26.62,0,0,0-14.15,3.85c-9.2,5.71-11.49,15.41-12,17.58a32.16,32.16,0,0,0-.42,11.57,34.14,34.14,0,0,0,6,15c1.12,1.43,8,9.83,19.71,10.71,15.16,1.13,24.35-11.29,24.86-12h36.43a46.37,46.37,0,0,1-9.63,25.81C151,135.22,133,137,129.86,137.24q.21,6.87.43,13.72l-18.86.43V136.82a104.05,104.05,0,0,1-14.12-2.59A137.52,137.52,0,0,1,84,129.94c-5.59-2-7.19-2.82-14.57-5.57-4-1.5-7.31-2.67-9.45-3.41v29.57H42l.43-34.71a110.83,110.83,0,0,0-15.38-2.2,112.51,112.51,0,0,0-27,1.32V38.24s16.29,3.19,42.21,1.38V0h18V36.66q5-2.13,10.1-4.43,8-3.6,15.43-7.29a82.64,82.64,0,0,1,26.12-7.08V0h18V17.58a49.52,49.52,0,0,1,21.64,8.05c17.64,12,21,31.72,21.66,35.74Z" transform="translate(-0.05)"/></g></g></svg>